# xmcd
#
# Track frame offsets:
#	150
#	21591
#	38088
#	57152
#	85611
#	100450
#	113067
#	130023
#	144996
#	163803
#	182920
#	213485
#
# Disc length: 3073 seconds
#
# Revision: 0
# Processed by: cddbd v1.5.1PL0 Copyright (c) Steve Scherf et al.
# Submitted via: MusicManager 7.0.6.0 
#
DISCID=a40bff0c
DTITLE=Orange Black - Morning Notes
DYEAR=2003
DGENRE=Rock
TTITLE0=Daydreamer
TTITLE1=Rush
TTITLE2=Dream Team
TTITLE3=Do You Compute?
TTITLE4=How It Ended
TTITLE5=Surrender
TTITLE6=Sunspots
TTITLE7=Rave On
TTITLE8=Safari
TTITLE9=X-mas Day
TTITLE10=(We've Lost) Gravity
TTITLE11=Golden Years
EXTD=
EXTT0=
EXTT1=
EXTT2=
EXTT3=
EXTT4=
EXTT5=
EXTT6=
EXTT7=
EXTT8=
EXTT9=
EXTT10=
EXTT11=
PLAYORDER=
